<?xml version="1.0" encoding="utf-8"?>
<!-- Generator: Adobe Illustrator 23.0.1, SVG Export Plug-In . SVG Version: 6.00 Build 0)  -->
<svg version="1.1" id="Capa_1" xmlns="http://www.w3.org/2000/svg" xmlns:xlink="http://www.w3.org/1999/xlink" x="0px" y="0px"
	 viewBox="0 0 100 100" style="enable-background:new 0 0 100 100;" xml:space="preserve">
<style type="text/css">
	.st0{fill:#335264;}
</style>
<g>
	<g>
		<g>
			<path class="st0" d="M13.57,32.61h-0.26c-3.28,0-5.96,2.69-5.96,5.96v25.95c0,3.29,2.68,5.97,5.96,5.97h0.26
				c3.28,0,5.96-2.69,5.96-5.97V38.57C19.53,35.29,16.85,32.61,13.57,32.61z"/>
			<path class="st0" d="M22.39,74.54c0,3.01,2.46,5.47,5.48,5.47h5.85v14.02c0,3.29,2.69,5.97,5.96,5.97h0.26
				c3.29,0,5.97-2.68,5.97-5.97V80.01h8.18v14.02c0,3.29,2.69,5.97,5.97,5.97h0.25c3.29,0,5.97-2.68,5.97-5.97V80.01h5.86
				c3.01,0,5.47-2.46,5.47-5.47V33.56H22.39V74.54z"/>
			<path class="st0" d="M63.75,8.71l4.65-7.18c0.3-0.45,0.17-1.07-0.29-1.37c-0.45-0.3-1.07-0.17-1.37,0.29l-4.82,7.43
				C58.31,6.4,54.27,5.56,50,5.56c-4.27,0-8.3,0.83-11.93,2.31l-4.81-7.43c-0.29-0.47-0.92-0.59-1.38-0.29
				c-0.46,0.29-0.59,0.91-0.29,1.37l4.65,7.18C27.86,12.82,22.2,20.57,22.2,29.46c0,0.55,0.03,1.08,0.08,1.62h55.44
				c0.05-0.53,0.08-1.07,0.08-1.62C77.8,20.57,72.14,12.82,63.75,8.71z M37.15,21.56c-1.47,0-2.67-1.19-2.67-2.66
				s1.2-2.66,2.67-2.66c1.48,0,2.67,1.18,2.67,2.66C39.82,20.37,38.62,21.56,37.15,21.56z M62.85,21.56c-1.47,0-2.67-1.19-2.67-2.66
				s1.2-2.66,2.67-2.66c1.48,0,2.66,1.18,2.66,2.66C65.52,20.37,64.33,21.56,62.85,21.56z"/>
			<path class="st0" d="M86.68,32.61h-0.25c-3.28,0-5.97,2.69-5.97,5.96v25.95c0,3.29,2.69,5.97,5.97,5.97h0.25
				c3.29,0,5.96-2.69,5.96-5.97V38.57C92.65,35.29,89.97,32.61,86.68,32.61z"/>
		</g>
	</g>
</g>
</svg>
