<?xml version="1.0" encoding="utf-8"?>
<!-- Generator: Adobe Illustrator 23.0.1, SVG Export Plug-In . SVG Version: 6.00 Build 0)  -->
<svg version="1.1" id="Capa_1" xmlns="http://www.w3.org/2000/svg" xmlns:xlink="http://www.w3.org/1999/xlink" x="0px" y="0px"
	 viewBox="0 0 100 100" style="enable-background:new 0 0 100 100;" xml:space="preserve">
<style type="text/css">
	.st0{fill:#335264;}
</style>
<g>
	<g>
		<path class="st0" d="M91.78,83.73c-0.41-0.46-0.99-0.92-1.73-1.37c-0.11-0.07-0.42-0.25-0.92-0.53c-0.5-0.28-0.9-0.52-1.2-0.73
			c-0.3-0.2-0.69-0.56-1.17-1.06c-0.48-0.5-0.86-1.03-1.14-1.59c-0.28-0.56-0.55-1.31-0.81-2.26c-0.26-0.95-0.41-2-0.45-3.15
			c-0.52,0.44-0.81,1.33-0.86,2.65c-0.06,1.32,0.22,2.67,0.84,4.04c0.61,1.38,1.53,2.27,2.76,2.68c1.19,0.41,2.15,0.85,2.87,1.31
			c0.72,0.47,1.19,0.99,1.4,1.59c0.2,0.6-0.14,1.24-1.03,1.93c-0.89,0.69-2.33,1.37-4.3,2.04c-2.72,0.93-4.64,1.72-5.78,2.37
			c-1.13,0.65-2.8,1.89-4.99,3.71c-1.49,1.23-3.07,1.89-4.74,1.98c-1.67,0.09-3.03-0.52-4.07-1.84c-1.04-1.32-1.38-3.19-1.01-5.61
			c0.71-4.65,0.69-8.28-0.05-10.88c-0.6-2.05-0.73-3.85-0.39-5.41c0.33-1.56,0.85-2.47,1.56-2.73c0.7-0.26,1.47,0.3,2.29,1.67
			c0.07,0.19,0.24,0.55,0.5,1.09c0.26,0.54,0.47,0.92,0.64,1.14c0.17,0.22,0.42,0.51,0.75,0.87C71.08,76,71.5,76.25,72,76.4
			c0.5,0.15,1.09,0.24,1.76,0.28c1.26,0.04,2.4-0.22,3.4-0.78c1-0.56,1.76-1.18,2.26-1.87c0.5-0.69,1-1.35,1.51-1.98
			c0.5-0.63,0.94-0.99,1.31-1.06c0.41-0.07,0.78-0.48,1.12-1.23c0.33-0.74,0.56-1.78,0.67-3.1c0.11-1.32,0.02-2.89-0.28-4.71
			c-0.56-3.24-1.67-6.79-3.32-10.66c-1.66-3.87-3.51-6.9-5.55-9.1c-3.68-3.91-6.16-7.96-7.42-12.16c-1.3-4.43-1.86-8.41-1.67-11.94
			c0.19-2.53-0.36-5.27-1.65-8.23c-1.28-2.96-2.99-5.22-5.11-6.78c-1.34-1-2.99-1.78-4.97-2.32c-1.97-0.54-3.94-0.79-5.92-0.75
			c-2.42,0-4.35,0.39-5.8,1.17c-2.98,1.6-4.95,3.54-5.91,5.83c-0.97,2.29-1.41,5.11-1.34,8.45c0.15,7.37,0.45,13.13,0.89,17.3
			c-0.52,1.93-2.83,5.56-6.92,10.88c-0.74,0.74-1.47,1.75-2.18,3.01c-0.71,1.27-1.26,2.4-1.67,3.4c-0.41,1-0.96,2.45-1.65,4.35
			c-0.69,1.9-1.18,3.24-1.48,4.02c-0.26,0.67-0.67,1.45-1.23,2.34c-0.56,0.89-1.01,1.77-1.34,2.62c-0.33,0.86-0.52,1.82-0.56,2.9
			c-0.04,0.82,0,1.53,0.11,2.12c0.15,0.89,0.43,1.17,0.84,0.84c1.67-1.26,3.78-0.52,6.31,2.23c1.79,1.93,4.93,6.44,9.43,13.5
			c0.37,0.63,0.74,1.31,1.12,2.04c0.37,0.72,0.73,1.69,1.06,2.9c0.33,1.21,0.47,2.3,0.42,3.27c-0.06,0.97-0.48,1.86-1.28,2.68
			c-0.8,0.82-2,1.34-3.6,1.56c-0.86,0.11-1.89,0.04-3.1-0.22c-1.21-0.26-2.74-0.69-4.6-1.28c-1.86-0.59-3.24-1-4.13-1.23
			c-1.3-0.3-3.15-0.68-5.55-1.14c-2.4-0.47-3.97-0.81-4.72-1.03C10,92.19,9.31,91.7,9.2,91.07c-0.11-0.52,0.15-1.41,0.78-2.68
			c0.63-1.26,0.95-2.18,0.95-2.73c0.04-0.41,0.02-0.82-0.06-1.23c-0.07-0.41-0.16-0.73-0.25-0.95c-0.09-0.22-0.25-0.56-0.47-1
			c-0.22-0.45-0.37-0.78-0.45-1c-0.67-1.56-0.76-2.62-0.28-3.18c0.33-0.48,1.13-0.67,2.4-0.56c1.9,0.19,3.44-0.09,4.63-0.84
			c1.97-1.23,2.57-3.2,1.79-5.92c0,1.26-0.22,2.21-0.67,2.85c-0.45,0.63-1.23,1.28-2.34,1.95c-0.63,0.37-1.75,0.59-3.35,0.67
			c-1.6,0.07-2.66,0.33-3.18,0.78c-0.37,0.33-0.57,0.84-0.59,1.51c-0.02,0.67,0.07,1.35,0.25,2.04c0.19,0.69,0.37,1.48,0.56,2.37
			c0.19,0.89,0.26,1.64,0.22,2.23c-0.04,0.41-0.37,1.42-1,3.04c-0.63,1.62-0.76,2.86-0.39,3.71c0.19,0.41,0.5,0.77,0.95,1.09
			c0.45,0.32,1.07,0.59,1.87,0.81c0.8,0.22,1.53,0.4,2.2,0.53c0.67,0.13,1.6,0.3,2.79,0.5c1.19,0.2,2.14,0.38,2.85,0.53
			c2.38,0.48,5.1,1.28,8.15,2.4c3.05,1.12,5.11,1.69,6.19,1.73c1.04,0.04,2.04-0.18,2.99-0.64c0.95-0.46,1.76-0.99,2.43-1.59
			c0.67-0.6,1.66-1.15,2.98-1.67c1.32-0.52,2.8-0.8,4.44-0.84c0.74-0.04,1.82-0.08,3.24-0.14c1.41-0.06,2.47-0.08,3.18-0.08
			c3.2,0,5.62,0.02,7.25,0.06c1.12,0.04,1.99,0.21,2.62,0.53c0.63,0.32,1.04,0.68,1.23,1.09c0.19,0.41,0.49,0.88,0.92,1.42
			c0.43,0.54,0.98,0.98,1.64,1.31c1.41,0.67,3.07,0.94,4.97,0.81c1.9-0.13,3.16-0.49,3.79-1.09c1.04-1,2.45-2.2,4.21-3.57
			c1.77-1.38,3.36-2.42,4.77-3.12c0.3-0.15,0.8-0.39,1.51-0.73c0.71-0.33,1.3-0.62,1.78-0.87c0.48-0.24,1.07-0.55,1.76-0.92
			c0.69-0.37,1.25-0.72,1.67-1.03c0.43-0.32,0.86-0.68,1.31-1.09c0.45-0.41,0.73-0.82,0.87-1.23c0.13-0.41,0.18-0.83,0.14-1.26
			C92.41,84.64,92.19,84.2,91.78,83.73z M61.87,29.8c0.11-0.07,0.19-0.1,0.22-0.08c0.04,0.02,0.11,0.09,0.22,0.22
			c0.11,0.13,0.21,0.25,0.31,0.36c0.09,0.11,0.22,0.26,0.39,0.45c0.17,0.19,0.34,0.33,0.53,0.45c0.22,0.15,0.49,0.25,0.81,0.31
			s0.56,0.15,0.73,0.28c0.17,0.13,0.29,0.34,0.36,0.64c0.07,0.41,0.01,0.78-0.19,1.12c-0.21,0.34-0.47,0.48-0.81,0.45
			c-0.67-0.15-1.4-0.73-2.18-1.76C61.48,31.2,61.35,30.4,61.87,29.8z M54.95,8.12c0.19-0.24,0.3-0.44,0.33-0.59
			c0.07-0.22,0.08-0.46,0.03-0.7c-0.06-0.24-0.04-0.48,0.06-0.73c0.09-0.24,0.31-0.38,0.64-0.42c0.33,0,0.78,0.28,1.34,0.84
			c0.11,0.07,0.29,0.19,0.53,0.33c0.24,0.15,0.41,0.28,0.5,0.39c0.09,0.11,0.14,0.21,0.14,0.28c-0.07,0.19-0.24,0.32-0.5,0.39
			C57.76,8,57.48,8.04,57.18,8.04c-0.3,0-0.47,0.02-0.5,0.06c-0.3,0.11-0.58,0.28-0.84,0.5c-0.26,0.22-0.46,0.39-0.61,0.5
			c-0.15,0.11-0.3,0.11-0.45,0c-0.15-0.22-0.2-0.38-0.17-0.47C54.65,8.53,54.76,8.37,54.95,8.12z M27.94,49.89
			c0.26-0.3,0.45-0.54,0.56-0.73c0.11-0.19,0.21-0.44,0.31-0.75c0.09-0.32,0.18-0.55,0.25-0.7c0.07-0.15,0.19-0.21,0.34-0.17
			c0.07-0.02,0.13,0.02,0.17,0.11c0.04,0.09,0.06,0.14,0.06,0.14v0.17c0,0.06-0.01,0.13-0.03,0.22c-0.02,0.09-0.05,0.18-0.08,0.25
			c-0.04,0.07-0.07,0.19-0.11,0.33c-0.04,0.15-0.07,0.28-0.11,0.39c-0.15,0.37-0.38,0.71-0.7,1c-0.32,0.3-0.55,0.43-0.7,0.39
			C27.66,50.49,27.68,50.26,27.94,49.89z M64.43,84.32c-0.07,1.19-0.33,2.86-0.75,5.02c-0.43,2.16-0.7,3.59-0.81,4.3
			c-0.78-0.04-1.23-0.33-1.34-0.87c-0.11-0.54,0-1.24,0.33-2.09c0.82-2.49,1.24-4.2,1.28-5.13c0.08-1.71-0.11-2.68-0.56-2.9
			c-0.41-0.3-1.04,0.26-1.9,1.67c-1.64,2.68-4.93,4.3-9.88,4.86c-4.46,0.6-7.55-0.07-9.26-2.01c-0.37-0.26-0.74-0.31-1.12-0.14
			c-0.37,0.17-0.61,0.34-0.73,0.53c-0.04,0.08,0,0.19,0.11,0.34c0.11,0.15,0.29,0.37,0.53,0.67c0.24,0.3,0.44,0.6,0.59,0.89
			c1.45,2.53,1.32,4.24-0.39,5.13c0-1.71-0.13-3.02-0.39-3.93c-0.26-0.91-0.78-1.92-1.56-3.01c-0.78-1.1-1.32-1.93-1.62-2.48
			c1.12-0.11,1.96-0.54,2.54-1.28c0.58-0.74,0.84-1.54,0.78-2.4c-0.06-0.86-0.38-1.56-0.98-2.12c-0.33-0.33-2.07-1.76-5.19-4.27
			c-3.12-2.51-5.06-4.19-5.8-5.05c-0.15-0.15-0.6-0.52-1.34-1.12c-0.74-0.6-1.21-1.12-1.4-1.56c-1.71-3.76-1.9-6.84-0.56-9.26
			l0.22-0.28c0.19-0.04,0.2,0.3,0.06,1c-0.22,1.04-0.3,2.08-0.22,3.12c0.15,2.34,0.82,4.09,2.01,5.24c0.78,0.78,1.32,0.73,1.62-0.17
			c0.22-0.3,0.33-1.4,0.31-3.29c-0.02-1.9,0.01-3.18,0.08-3.85c0.3-2.12,1.18-4.74,2.65-7.87c1.47-3.13,2.63-4.8,3.49-5.02
			c-0.67-1.08-0.88-2.25-0.64-3.52c0.24-1.26,0.63-2.34,1.17-3.24c0.54-0.89,1.09-1.92,1.65-3.1c0.56-1.17,0.84-2.22,0.84-3.15
			c0-0.26,0.02-0.45,0.06-0.56c0.11-0.33,0.58,0.07,1.39,1.23c1.56,2.31,2.73,3.66,3.52,4.07c0.82,0.45,1.73,0.43,2.73-0.06
			c1-0.48,2.24-1.28,3.71-2.4c1.47-1.12,2.72-1.93,3.77-2.45c0.11-0.04,0.29-0.12,0.53-0.25c0.24-0.13,0.43-0.22,0.56-0.28
			c0.13-0.06,0.3-0.14,0.5-0.25c0.2-0.11,0.36-0.2,0.47-0.28c0.11-0.07,0.22-0.16,0.33-0.25c0.11-0.09,0.19-0.19,0.22-0.28
			c0.04-0.09,0.06-0.18,0.06-0.25c-0.07-0.33-0.23-0.54-0.47-0.61c-0.24-0.07-0.57-0.03-0.98,0.14c-0.41,0.17-0.87,0.39-1.37,0.67
			c-0.5,0.28-1.06,0.6-1.67,0.95c-0.61,0.35-1.24,0.68-1.87,0.98c-0.63,0.3-1.3,0.56-2.01,0.78c-0.71,0.22-1.38,0.35-2.01,0.39
			c-1.56,0.04-2.81-0.37-3.74-1.23c-0.6-0.56-0.91-0.91-0.95-1.06c-0.04-0.15,0.13-0.19,0.5-0.11c2.01,0.26,3.48,0.3,4.41,0.11
			c0.97-0.15,2.27-0.58,3.91-1.28c0.34-0.15,1.18-0.51,2.54-1.09c1.36-0.58,2.41-0.98,3.15-1.2c0.45-0.11,0.75-0.29,0.92-0.53
			c0.17-0.24,0.22-0.47,0.17-0.67c-0.06-0.2-0.18-0.36-0.36-0.47c-0.41-0.22-0.78-0.07-1.12,0.45c-0.19,0.33-0.58,0.66-1.17,0.98
			c-0.59,0.32-1.14,0.56-1.65,0.73c-0.5,0.17-1.14,0.36-1.93,0.59c-0.78,0.22-1.21,0.35-1.28,0.39c-2.05,0.63-3.94,0.91-5.69,0.84
			c-0.82-0.04-1.48-0.16-1.98-0.36c-0.5-0.2-0.85-0.45-1.03-0.73c-0.19-0.28-0.48-0.63-0.89-1.06c-0.41-0.43-0.87-0.79-1.4-1.09
			c-0.37-0.19-0.51-0.52-0.42-1c0.09-0.48,0.38-0.99,0.86-1.51c0.04-0.04,0.42-0.27,1.14-0.7c0.73-0.43,1.24-0.87,1.54-1.31
			c0.33-0.52,0.91-1.06,1.73-1.62c0.04-0.15,0.07-0.56,0.08-1.23c0.02-0.67-0.16-1.39-0.53-2.18c-0.37-0.78-0.87-1.17-1.51-1.17
			c-0.89-0.04-1.53,0.22-1.9,0.78c-0.37,0.56-0.54,1.25-0.5,2.06c0.04,0.71,0.21,1.33,0.53,1.87c0.32,0.54,0.6,0.81,0.87,0.81
			c0.41-0.04,0.54,0.11,0.39,0.45c-0.22,0.41-0.52,0.67-0.89,0.78c-0.26,0.07-0.55-0.18-0.87-0.75c-0.32-0.58-0.56-1.27-0.73-2.09
			c-0.17-0.82-0.23-1.51-0.2-2.07c0.07-1.15,0.38-2.26,0.92-3.32c0.54-1.06,1.31-1.57,2.32-1.54c1.04,0.04,1.88,0.67,2.51,1.9
			c0.63,1.23,0.93,2.9,0.89,5.02c0.11,0.26,0.4,0.35,0.87,0.28c0.46-0.07,1.08-0.08,1.84-0.03c0.76,0.06,1.31,0.25,1.65,0.59
			c0.04,0,0.06-0.28,0.06-0.84c-0.67-4.69,0.99-7.18,4.97-7.48c0.59,0.11,1.1,0.25,1.5,0.42c0.41,0.17,0.85,0.45,1.31,0.84
			c0.47,0.39,0.86,0.96,1.17,1.7c0.32,0.74,0.57,1.67,0.75,2.79v2.06c0,1.19-0.24,1.86-0.73,2.01c-0.78,0.26-1.34,0.25-1.67-0.03
			c-0.34-0.28-0.3-0.77,0.11-1.48c0.37-0.93,0.3-2.01-0.22-3.24c-0.52-1.23-1.47-1.79-2.85-1.67c-0.93,0.04-1.6,0.54-2.01,1.51
			c-0.41,0.97-0.56,1.92-0.45,2.85c0.11,0.93,0.32,1.41,0.61,1.45c0.22,0.04,0.88,0.33,1.98,0.89c1.1,0.56,1.93,0.89,2.48,1
			c1.45,0.3,2.28,0.76,2.48,1.39c0.2,0.63,0.12,1.55-0.25,2.76c-0.37,1.21-0.48,2.2-0.33,2.99c0.15,0.82,0.43,1.56,0.84,2.23
			c0.41,0.67,0.85,1.28,1.31,1.84c0.46,0.56,1.01,1.6,1.65,3.12c0.63,1.53,1.21,3.44,1.73,5.75c0.04,0.04,0.18,0.17,0.42,0.39
			c0.24,0.22,0.48,0.5,0.73,0.84c0.24,0.33,0.53,0.79,0.87,1.37c0.33,0.58,0.7,1.42,1.09,2.54c0.39,1.12,0.75,2.4,1.09,3.85
			c0.41,1.71,0.62,3.7,0.64,5.97c0.02,2.27,0.17,3.82,0.45,4.66c0.28,0.84,1,1.18,2.15,1.03c1.45-0.07,2.38-0.86,2.79-2.34
			c1.23-4.32,0.22-9.49-3.01-15.51c-1.23-2.34-2.29-3.89-3.18-4.63c1.3,0.74,2.64,2.14,4.02,4.19c1.38,2.05,2.25,3.96,2.62,5.75
			c0.04,0.19,0.14,0.68,0.31,1.48c0.17,0.8,0.26,1.27,0.28,1.4c0.02,0.13,0.09,0.51,0.22,1.14c0.13,0.63,0.2,1.04,0.2,1.23
			c0,0.19,0.02,0.55,0.06,1.09s0.03,0.96-0.03,1.26c-0.06,0.3-0.11,0.7-0.17,1.2c-0.06,0.5-0.15,0.99-0.28,1.45
			c-0.13,0.46-0.27,0.98-0.42,1.53c2.05,0.89,3.07,1.67,3.07,2.34c-0.78-0.63-1.9-1.05-3.35-1.25c-1.45-0.21-2.8-0.01-4.05,0.59
			c-1.25,0.6-1.89,1.58-1.93,2.96c-1.34,0-2.29,0.33-2.85,1.01c-0.82,0.97-1.25,2.28-1.28,3.93c-0.04,1.65,0.1,3.46,0.42,5.41
			C64.39,82.17,64.51,83.54,64.43,84.32z M41.06,19.65c-0.11-0.04-0.2-0.15-0.28-0.33c0-0.33,0.17-0.47,0.5-0.39
			c0.22,0.07,0.44,0.35,0.64,0.84c0.2,0.48,0.25,1.04,0.14,1.67c0,0.11-0.06,0.17-0.17,0.17c-0.41,0-0.56-0.37-0.45-1.12
			C41.56,19.92,41.43,19.65,41.06,19.65z M55.51,20.54l-0.11,0.17c-0.3,0.19-0.44,0.22-0.44,0.11c-0.15-1-0.48-1.58-1-1.73
			l-0.22-0.11c-0.26-0.22-0.13-0.35,0.39-0.39c0.11-0.04,0.28,0.02,0.5,0.17c0.22,0.15,0.43,0.38,0.61,0.7
			C55.41,19.77,55.51,20.13,55.51,20.54z"/>
		<path class="st0" d="M42.51,23.77c0,0.22,0.09,0.32,0.28,0.28c0.15,0,0.31-0.18,0.47-0.53c0.17-0.35,0.46-0.55,0.86-0.59v0h-0.56
			C42.86,23.05,42.51,23.33,42.51,23.77z"/>
		<path class="st0" d="M47.36,23.1c0.37-0.11,0.7-0.03,0.98,0.25c0.28,0.28,0.49,0.4,0.64,0.36c0.22-0.11,0.28-0.28,0.17-0.5
			C48.85,22.73,48.25,22.7,47.36,23.1z"/>
	</g>
</g>
</svg>
