<?xml version="1.0" encoding="utf-8"?>
<!-- Generator: Adobe Illustrator 23.0.1, SVG Export Plug-In . SVG Version: 6.00 Build 0)  -->
<svg version="1.1" id="Layer_1" xmlns="http://www.w3.org/2000/svg" xmlns:xlink="http://www.w3.org/1999/xlink" x="0px" y="0px"
	 viewBox="0 0 100 100" style="enable-background:new 0 0 100 100;" xml:space="preserve">
<style type="text/css">
	.st0{fill:#335264;}
</style>
<path class="st0" d="M46.03,47.8c-0.34,0-0.37-0.11-0.37-0.4c0.01-6.15,0.01-12.3,0.01-18.45c0-6.88,0-13.76-0.01-20.63
	c0-0.35,0.1-0.44,0.44-0.49c5.93-0.86,11.85-1.75,17.77-2.62c6.45-0.95,12.91-1.9,19.36-2.85c5.46-0.8,10.92-1.61,16.38-2.42
	c0.28-0.04,0.34,0.01,0.34,0.29c-0.01,15.66-0.01,31.32,0,46.97c0,0.4-0.2,0.36-0.45,0.36C90.6,47.56,54.95,47.79,46.03,47.8z"/>
<path class="st0" d="M99.56,52.66c0.31,0,0.39,0.08,0.39,0.39c-0.01,15.52-0.01,31.03,0,46.55c0,0.3-0.06,0.37-0.37,0.33
	c-5.76-0.81-11.53-1.62-17.29-2.42c-6.24-0.87-12.48-1.75-18.72-2.63c-5.5-0.77-11.01-1.53-16.52-2.3
	c-0.37-0.05-0.75-0.11-1.12-0.15c-0.21-0.02-0.3-0.11-0.27-0.32c0.01-0.08,0-0.16,0-0.23c0-12.96,0-25.92,0-38.89
	c0-0.53,0-0.52,0.54-0.52C55.07,52.45,90.64,52.66,99.56,52.66z"/>
<path class="st0" d="M0.13,86.02L0.1,86.01l-0.03,0c-0.1-0.11-0.05-0.25-0.05-0.37c0-11.01,0-22.01-0.01-33.02
	c0-0.31,0.07-0.45,0.4-0.42c0.43,0.04,0.86-0.03,1.29,0.04c2.17,0.02,4.33,0.04,6.5,0.05c10.75,0.04,21.49,0.09,32.24,0.12
	c0.38,0,0.46,0.1,0.46,0.47c-0.01,12.79-0.01,25.58,0,38.37c0,0.4-0.1,0.45-0.47,0.4c-3.82-0.55-7.65-1.08-11.47-1.62
	c-3.82-0.53-7.65-1.06-11.47-1.6c-4.38-0.61-8.76-1.23-13.14-1.84c-1.27-0.18-2.53-0.33-3.8-0.5C0.42,86.02,0.26,86.1,0.13,86.02z"
	/>
<path class="st0" d="M0.16,14.58c1.21-0.17,2.43-0.33,3.64-0.51c3.46-0.51,6.92-1.02,10.38-1.53c3.81-0.56,7.61-1.12,11.42-1.69
	c3.61-0.53,7.23-1.06,10.84-1.6c1.36-0.2,2.71-0.4,4.06-0.61c0.29-0.05,0.39-0.01,0.39,0.33c-0.01,12.82-0.01,25.63,0,38.45
	c0,0.3-0.07,0.38-0.38,0.38c-9.94,0.04-19.87,0.08-29.81,0.13c-0.13,0-0.26,0.01-0.39,0.02c-0.11,0.05-0.23,0.03-0.35,0.03
	c-3.18,0-6.37,0-9.55,0.01c-0.32,0-0.41-0.08-0.41-0.41c0.01-10.86,0.01-21.71,0.01-32.57C0.02,14.86-0.07,14.66,0.16,14.58z"/>
<path class="st0" d="M0.16,14.58c-0.2,0.11-0.12,0.3-0.12,0.46c0,5.39,0,10.79,0,16.18c0,5.45,0,10.89-0.01,16.34
	c0,0.32,0.05,0.43,0.41,0.43c3.12-0.03,6.24-0.03,9.36-0.04c0.17,0,0.34,0.01,0.51,0.01c-0.12,0.12-0.27,0.07-0.41,0.07
	c-3.16,0-6.32,0-9.48,0.01c-0.35,0-0.47-0.08-0.46-0.45c0.01-10.86,0.01-21.72,0.01-32.58C-0.02,14.86-0.15,14.62,0.16,14.58z"/>
<path class="st0" d="M1.7,52.24c-0.46,0-0.91,0.02-1.37,0.01c-0.21,0-0.32,0.04-0.29,0.27c0.01,0.08,0,0.16,0,0.23
	c0,10.92,0,21.83,0,32.75c0,0.17,0.02,0.34,0.03,0.5c-0.17-0.11-0.09-0.29-0.09-0.43c0-10.99,0-21.98-0.01-32.96
	c0-0.36,0.1-0.49,0.46-0.45C0.85,52.22,1.28,52.09,1.7,52.24z"/>
<path class="st0" d="M0.13,86.02c0.14-0.01,0.29-0.01,0.42,0.06C0.41,86.08,0.26,86.14,0.13,86.02z"/>
</svg>
